<mxfile host="app.diagrams.net" modified="2023-11-22T16:54:00.524Z" agent="Mozilla/5.0 (Macintosh; Intel Mac OS X 10_15_7) AppleWebKit/537.36 (KHTML, like Gecko) Chrome/116.0.5845.2319 YaBrowser/23.9.0.2319 Yowser/2.5 Safari/537.36" etag="dnIQlBS3PdBgxBZ-NygT" version="22.1.3" type="github">
  <diagram name="Page-1" id="5f0bae14-7c28-e335-631c-24af17079c00">
    <mxGraphModel dx="1194" dy="747" grid="1" gridSize="10" guides="1" tooltips="1" connect="1" arrows="1" fold="1" page="1" pageScale="1" pageWidth="1100" pageHeight="850" background="none" math="0" shadow="0">
      <root>
        <mxCell id="0" />
        <mxCell id="1" parent="0" />
        <mxCell id="6if9QwEAnKr5EZq6M6pL-5" value="Регистрация пользователей" style="verticalAlign=top;align=left;spacingTop=8;spacingLeft=2;spacingRight=12;shape=cube;size=10;direction=south;fontStyle=4;html=1;whiteSpace=wrap;" vertex="1" parent="1">
          <mxGeometry x="80" y="90" width="180" height="120" as="geometry" />
        </mxCell>
        <mxCell id="6if9QwEAnKr5EZq6M6pL-6" value="регистрация парковок" style="verticalAlign=top;align=left;spacingTop=8;spacingLeft=2;spacingRight=12;shape=cube;size=10;direction=south;fontStyle=4;html=1;whiteSpace=wrap;" vertex="1" parent="1">
          <mxGeometry x="530" y="90" width="180" height="120" as="geometry" />
        </mxCell>
        <mxCell id="6if9QwEAnKr5EZq6M6pL-7" value="оплата" style="verticalAlign=top;align=left;spacingTop=8;spacingLeft=2;spacingRight=12;shape=cube;size=10;direction=south;fontStyle=4;html=1;whiteSpace=wrap;" vertex="1" parent="1">
          <mxGeometry x="80" y="230" width="180" height="120" as="geometry" />
        </mxCell>
        <mxCell id="6if9QwEAnKr5EZq6M6pL-8" value="авторизация" style="verticalAlign=top;align=left;spacingTop=8;spacingLeft=2;spacingRight=12;shape=cube;size=10;direction=south;fontStyle=4;html=1;whiteSpace=wrap;" vertex="1" parent="1">
          <mxGeometry x="740" y="82.5" width="180" height="135" as="geometry" />
        </mxCell>
        <mxCell id="6if9QwEAnKr5EZq6M6pL-9" value="логирование" style="verticalAlign=top;align=left;spacingTop=8;spacingLeft=2;spacingRight=12;shape=cube;size=10;direction=south;fontStyle=4;html=1;whiteSpace=wrap;" vertex="1" parent="1">
          <mxGeometry x="310" y="90" width="180" height="120" as="geometry" />
        </mxCell>
        <mxCell id="6if9QwEAnKr5EZq6M6pL-11" value="Монолит TakLikParking" style="verticalAlign=top;align=left;spacingTop=8;spacingLeft=2;spacingRight=12;shape=cube;size=10;direction=south;fontStyle=4;html=1;whiteSpace=wrap;fillColor=none;" vertex="1" parent="1">
          <mxGeometry x="40" width="940" height="420" as="geometry" />
        </mxCell>
      </root>
    </mxGraphModel>
  </diagram>
</mxfile>
